<svg width="25" height="20" viewBox="0 0 25 20" fill="none" xmlns="http://www.w3.org/2000/svg">
    <path
        d="M24.4355 7.63657L20.4078 0.847834C20.2426 0.568795 19.9378 0.399902 19.6074 0.399902H5.78392C5.4645 0.399902 5.1671 0.561451 4.99821 0.825805L0.695124 7.62923C0.471158 7.9817 0.526232 8.44065 0.834644 8.73437L11.9044 19.3452C12.2642 19.6903 12.8407 19.6903 13.2005 19.3452L24.285 8.71968C24.5824 8.4333 24.6448 7.98904 24.4355 7.63657ZM18.7446 9.52376C18.7299 10.2177 16.6554 10.7978 13.8871 10.941V14.183H11.2729V10.941C8.50823 10.8015 6.43379 10.2214 6.41543 9.52376V8.07349C6.43012 7.37956 8.50456 6.79945 11.2729 6.65626V5.3345H7.33333V3.42895H17.823V5.3345H13.8871V6.65626C16.6518 6.79578 18.7262 7.37589 18.7446 8.07349V9.52376Z"
        fill="#D1D1D2 " />
    <path
        d="M13.8861 9.06826C13.4638 9.09029 13.0269 9.10131 12.579 9.10131C12.1311 9.10131 11.6941 9.09029 11.2719 9.06826V7.68408C8.92211 7.80524 7.06797 8.24216 6.55762 8.79657C7.15975 9.45011 9.62705 9.9421 12.579 9.9421C15.5309 9.9421 17.9982 9.45011 18.6004 8.79657C18.09 8.24216 16.2359 7.80524 13.8861 7.68408V9.06826Z"
        fill="#D1D1D2 " />
</svg>