<svg width="41" height="40" viewBox="0 0 41 40" fill="none" xmlns="http://www.w3.org/2000/svg">
    <rect x="0.5" width="40" height="40" rx="8" fill="#045AF4" />
    <path
        d="M24.5 11.4678C25.9817 12.2041 27 13.7331 27 15.5C27 17.2669 25.9817 18.7959 24.5 19.5322M26.5 24.7664C28.0115 25.4503 29.3725 26.565 30.5 28M10.5 28C12.4465 25.5226 15.0892 24 18 24C20.9108 24 23.5535 25.5226 25.5 28M22.5 15.5C22.5 17.9853 20.4853 20 18 20C15.5147 20 13.5 17.9853 13.5 15.5C13.5 13.0147 15.5147 11 18 11C20.4853 11 22.5 13.0147 22.5 15.5Z"
        stroke="white" stroke-width="2" stroke-linecap="round" stroke-linejoin="round" />
</svg>