<svg width="41" height="40" viewBox="0 0 41 40" fill="none" xmlns="http://www.w3.org/2000/svg">
    <rect x="0.5" width="40" height="40" rx="8" fill="#045AF4"/>
    <path d="M10.9995 17H29.9995M18.4995 11L16.4995 17L20.4995 28.5L24.4995 17L22.4995 11M21.1141 28.2625L30.0727 17.5121C30.2246 17.33 30.3005 17.2389 30.3295 17.1372C30.3551 17.0475 30.3551 16.9525 30.3295 16.8628C30.3005 16.7611 30.2246 16.67 30.0727 16.4879L25.7394 11.2879C25.6512 11.182 25.6072 11.1291 25.5531 11.0911C25.5052 11.0574 25.4518 11.0324 25.3953 11.0172C25.3314 11 25.2626 11 25.1248 11H15.8742C15.7365 11 15.6676 11 15.6038 11.0172C15.5473 11.0324 15.4938 11.0574 15.446 11.0911C15.3919 11.1291 15.3478 11.182 15.2597 11.2879L10.9263 16.4879C10.7745 16.67 10.6986 16.7611 10.6696 16.8628C10.644 16.9525 10.644 17.0475 10.6696 17.1372C10.6986 17.2389 10.7745 17.33 10.9263 17.5121L19.885 28.2625C20.096 28.5158 20.2015 28.6424 20.3279 28.6886C20.4387 28.7291 20.5603 28.7291 20.6712 28.6886C20.7975 28.6424 20.9031 28.5158 21.1141 28.2625Z" stroke="white" stroke-width="2" stroke-linecap="round" stroke-linejoin="round"/>
</svg>
