<svg width="41" height="40" viewBox="0 0 41 40" fill="none" xmlns="http://www.w3.org/2000/svg">
    <rect x="0.5" width="40" height="40" rx="8" fill="#045AF4" />
    <path
        d="M24.7 29H15.4314C14.8256 29 14.5226 29 14.3824 28.8802C14.2607 28.7763 14.1961 28.6203 14.2086 28.4608C14.2231 28.2769 14.4373 28.0627 14.8657 27.6343L23.3686 19.1314C23.7646 18.7354 23.9627 18.5373 24.191 18.4632C24.3918 18.3979 24.6082 18.3979 24.809 18.4632C25.0373 18.5373 25.2354 18.7354 25.6314 19.1314L29.5 23V24.2M24.7 29C26.3802 29 27.2202 29 27.862 28.673C28.4265 28.3854 28.8854 27.9265 29.173 27.362C29.5 26.7202 29.5 25.8802 29.5 24.2M24.7 29H16.3C14.6198 29 13.7798 29 13.138 28.673C12.5735 28.3854 12.1146 27.9265 11.827 27.362C11.5 26.7202 11.5 25.8802 11.5 24.2V15.8C11.5 14.1198 11.5 13.2798 11.827 12.638C12.1146 12.0735 12.5735 11.6146 13.138 11.327C13.7798 11 14.6198 11 16.3 11H24.7C26.3802 11 27.2202 11 27.862 11.327C28.4265 11.6146 28.8854 12.0735 29.173 12.638C29.5 13.2798 29.5 14.1198 29.5 15.8V24.2M19 16.5C19 17.6046 18.1046 18.5 17 18.5C15.8954 18.5 15 17.6046 15 16.5C15 15.3954 15.8954 14.5 17 14.5C18.1046 14.5 19 15.3954 19 16.5Z"
        stroke="white" stroke-width="2" stroke-linecap="round" stroke-linejoin="round" />
</svg>