<svg width="138" height="32" viewBox="0 0 138 32" fill="none" xmlns="http://www.w3.org/2000/svg">
    <path
        d="M22.7368 28.3169C23.0918 28.9503 22.6323 29.7304 21.9043 29.7304H3.20374C2.86301 29.7304 2.54816 29.5493 2.37784 29.2552L0.127698 25.3705C-0.0420853 25.0774 -0.0425965 24.7164 0.126355 24.4228L10.741 5.97706C10.911 5.68169 11.2266 5.49951 11.5683 5.49951H16.0793C16.4196 5.49951 16.7341 5.68023 16.9046 5.97373L22.8455 16.2014C23.2134 16.8349 22.7547 17.6277 22.0201 17.6277H18.6219C18.281 17.6277 17.966 17.4463 17.7957 17.152L14.6747 11.7575C14.3074 11.1227 13.3878 11.1235 13.0216 11.7589L6.29517 23.4296C5.93006 24.0631 6.38899 24.8531 7.1221 24.8531H20.2359C20.5814 24.8531 20.8999 25.0394 21.0684 25.34L22.7368 28.3169Z"
        fill="black" />
    <path
        d="M27.4685 24.4398C27.6402 24.736 27.6388 25.1013 27.465 25.3962L25.7429 28.3184C25.3721 28.9476 24.4575 28.9429 24.0933 28.3099L21.6876 24.1289C21.5176 23.8335 21.202 23.6513 20.8603 23.6513H9.13637C8.40301 23.6513 7.94411 22.8609 8.30971 22.2274L10.023 19.2587C10.1935 18.9632 10.5097 18.7814 10.8517 18.7822L23.6572 18.81C23.9971 18.8108 24.311 18.9917 24.4809 19.285L27.4685 24.4398Z"
        fill="black" />
    <path
        d="M35.5595 25.5337L41.627 9.64971H45.9186L51.9861 25.5337H47.8425L46.4119 21.9327H41.1091L39.7032 25.5337H35.5595ZM41.6517 18.9976H45.8693L43.7482 13.4727L41.6517 18.9976ZM57.7975 25.7803C56.6629 25.7803 55.6928 25.5995 54.8871 25.2377C54.0814 24.876 53.4648 24.284 53.0373 23.4619C52.6097 22.6233 52.396 21.5051 52.396 20.1075C52.396 18.6934 52.6426 17.5095 53.1359 16.5558C53.6292 15.5857 54.3034 14.8539 55.1584 14.3606C56.0299 13.8509 57.0247 13.596 58.1428 13.596C58.7512 13.596 59.2938 13.6618 59.7707 13.7934C60.264 13.9249 60.7244 14.1222 61.1519 14.3853V8.90977H65.1229V25.5337H61.6945L61.4725 24.5471C60.9957 24.9582 60.4613 25.2706 59.8693 25.4844C59.2774 25.6817 58.5868 25.7803 57.7975 25.7803ZM58.9321 22.8946C59.8036 22.8946 60.5435 22.5986 61.1519 22.0067V17.2711C60.5928 16.7613 59.8776 16.5065 59.0061 16.5065C58.1675 16.5065 57.5262 16.8271 57.0822 17.4684C56.6547 18.0932 56.441 18.9811 56.441 20.1322C56.441 21.2503 56.6465 21.9902 57.0576 22.352C57.4851 22.7137 58.1099 22.8946 58.9321 22.8946ZM71.9712 25.7803C71.0339 25.7803 70.146 25.7146 69.3074 25.583C68.4688 25.4515 67.8029 25.287 67.3096 25.0897V22.056C67.8851 22.3026 68.551 22.4917 69.3074 22.6233C70.0638 22.7548 70.7379 22.8206 71.3299 22.8206C72.0369 22.8206 72.5467 22.7877 72.8591 22.7219C73.188 22.6562 73.3524 22.4753 73.3524 22.1793C73.3524 21.8504 73.0893 21.6038 72.5631 21.4394C72.0369 21.2749 71.3134 21.0365 70.3926 20.7241C69.3238 20.3459 68.5099 19.9102 67.9508 19.4169C67.4082 18.9071 67.1369 18.159 67.1369 17.1724C67.1369 16.0214 67.5644 15.1417 68.4195 14.5333C69.2909 13.9085 70.6722 13.596 72.5631 13.596C73.3031 13.596 74.0348 13.6536 74.7583 13.7687C75.4818 13.8838 76.0737 14.0153 76.5341 14.1633V17.1477C76.0737 16.934 75.5475 16.7778 74.9556 16.6791C74.3636 16.5805 73.8292 16.5311 73.3524 16.5311C72.744 16.5311 72.226 16.5722 71.7985 16.6544C71.3874 16.7202 71.1819 16.8929 71.1819 17.1724C71.1819 17.4848 71.4121 17.7068 71.8725 17.8383C72.3329 17.9534 72.9989 18.1508 73.8703 18.4303C74.7911 18.7098 75.5064 19.014 76.0162 19.3429C76.5259 19.6553 76.8876 20.0335 77.1014 20.4775C77.3152 20.9214 77.422 21.4805 77.422 22.1546C77.422 23.3221 76.9616 24.2182 76.0408 24.8431C75.12 25.4679 73.7635 25.7803 71.9712 25.7803ZM87.3499 25.7803C84.6039 25.7803 82.5157 25.0897 81.0851 23.7085C79.6546 22.3109 78.9393 20.3459 78.9393 17.8137C78.9393 15.1664 79.671 13.1028 81.1344 11.6229C82.5979 10.143 84.7519 9.40307 87.5966 9.40307C88.5667 9.40307 89.4382 9.46062 90.211 9.57572C91.0003 9.69082 91.7484 9.86347 92.4555 10.0937V13.4974C91.7484 13.2343 91.0085 13.0534 90.2357 12.9548C89.4793 12.8561 88.6982 12.8068 87.8925 12.8068C86.1825 12.8068 84.9328 13.2179 84.1435 14.04C83.3707 14.8457 82.9843 16.1036 82.9843 17.8137C82.9843 19.3758 83.3542 20.535 84.0942 21.2914C84.8341 22.0313 85.9276 22.4013 87.3746 22.4013C88.3283 22.4013 89.2162 22.2697 90.0383 22.0067V18.9976H86.61V16.5065H93.3681V24.3745C92.809 24.7362 92.028 25.0651 91.0249 25.361C90.0383 25.6406 88.8133 25.7803 87.3499 25.7803ZM95.4019 25.5337V13.8427H99.1756L99.2989 14.9279C99.8087 14.6155 100.442 14.336 101.198 14.0893C101.954 13.8262 102.711 13.6618 103.467 13.596V16.5805C103.04 16.6298 102.563 16.712 102.037 16.8271C101.527 16.9258 101.034 17.0491 100.557 17.1971C100.096 17.3451 99.7018 17.5013 99.3729 17.6657V25.5337H95.4019ZM107.868 25.7803C107.128 25.7803 106.437 25.6488 105.796 25.3857C105.171 25.1226 104.67 24.7198 104.292 24.1771C103.913 23.6181 103.724 22.9275 103.724 22.1053C103.724 20.905 104.127 19.9677 104.933 19.2936C105.755 18.6029 106.98 18.2576 108.608 18.2576H111.864V17.9863C111.864 17.3944 111.666 16.9751 111.272 16.7284C110.877 16.4654 110.137 16.3338 109.052 16.3338C107.72 16.3338 106.413 16.5393 105.13 16.9504V14.3853C105.706 14.1551 106.405 13.966 107.227 13.818C108.065 13.67 108.945 13.596 109.866 13.596C111.674 13.596 113.089 13.966 114.108 14.7059C115.144 15.4459 115.662 16.6216 115.662 18.233V25.5337H112.184L111.987 24.5471C111.559 24.9417 111.009 25.2459 110.334 25.4597C109.677 25.6735 108.855 25.7803 107.868 25.7803ZM109.126 23.3385C109.751 23.3385 110.293 23.2317 110.754 23.0179C111.214 22.8041 111.584 22.5328 111.864 22.204V20.5514H109.052C107.884 20.5514 107.301 21.0201 107.301 21.9573C107.301 22.3848 107.449 22.7219 107.745 22.9686C108.041 23.2152 108.501 23.3385 109.126 23.3385ZM118.043 25.5337V13.8427H121.718L121.842 14.8786C122.368 14.5004 122.96 14.1962 123.617 13.966C124.275 13.7194 124.982 13.596 125.739 13.596C126.528 13.596 127.144 13.7194 127.588 13.966C128.032 14.1962 128.378 14.5251 128.624 14.9526C129.167 14.558 129.775 14.2373 130.45 13.9907C131.14 13.7276 131.946 13.596 132.867 13.596C134.231 13.596 135.234 13.9496 135.876 14.6566C136.517 15.3637 136.838 16.4407 136.838 17.8877V25.5337H132.916V18.3563C132.916 17.715 132.776 17.2546 132.497 16.9751C132.234 16.6791 131.798 16.5311 131.189 16.5311C130.811 16.5311 130.441 16.6133 130.08 16.7778C129.718 16.9258 129.414 17.1395 129.167 17.419C129.2 17.5999 129.216 17.7726 129.216 17.937C129.233 18.1014 129.241 18.2988 129.241 18.529V25.5337H125.541V18.307C125.541 17.715 125.434 17.2711 125.221 16.9751C125.023 16.6791 124.637 16.5311 124.061 16.5311C123.65 16.5311 123.264 16.638 122.902 16.8518C122.54 17.0655 122.212 17.3122 121.916 17.5917V25.5337H118.043Z"
        fill="black" />
</svg>